<?xml version="1.0" encoding="UTF-8"?>
<svg width="286" height="124" viewBox="0 0 286 124" fill="none" xmlns="http://www.w3.org/2000/svg">
<path d="M32.3131 82.3125H24.3131V90.3125H32.3131V82.3125ZM25.6569 82C26.3157 82 28.2206 82.2163 29.8186 83.9741C31.2851 85.5873 31.3131 87.2267 31.3131 87.4219H15.3131C15.3131 89.3358 15.7318 92.2643 17.9795 94.7369C20.3588 97.3541 23.4356 98 25.6569 98V82ZM31.3131 87.4219V25.3594H15.3131V87.4219H31.3131ZM31.3131 25.3594C31.3131 25.5545 31.2851 27.194 29.8186 28.8072C28.2206 30.565 26.3157 30.7812 25.6569 30.7812V14.7812C23.4356 14.7812 20.3588 15.4272 17.9795 18.0444C15.7318 20.517 15.3131 23.4455 15.3131 25.3594H31.3131ZM25.6569 30.7812H29.9694V14.7812H25.6569V30.7812ZM29.9694 30.7812C29.3106 30.7812 27.4057 30.565 25.8077 28.8072C24.3411 27.194 24.3131 25.5545 24.3131 25.3594H40.3131C40.3131 23.4455 39.8945 20.517 37.6467 18.0444C35.2674 15.4272 32.1907 14.7812 29.9694 14.7812V30.7812ZM24.3131 25.3594V82.3125H40.3131V25.3594H24.3131ZM32.3131 90.3125H63.3913V74.3125H32.3131V90.3125ZM63.3913 90.3125C63.3638 90.3125 61.8574 90.3394 60.2589 89.0315C58.3532 87.4723 57.9694 85.423 57.9694 84.4219H73.9694C73.9694 82.0145 73.1559 78.9106 70.3907 76.6482C67.9329 74.6372 65.1374 74.3125 63.3913 74.3125V90.3125ZM57.9694 84.4219V87.8906H73.9694V84.4219H57.9694ZM57.9694 87.8906C57.9694 86.8895 58.3532 84.8402 60.2589 83.281C61.8574 81.9731 63.3638 82 63.3913 82V98C65.1374 98 67.9329 97.6753 70.3907 95.6643C73.1559 93.4019 73.9694 90.298 73.9694 87.8906H57.9694ZM63.3913 82H25.6569V98H63.3913V82ZM96.6669 82C97.3257 82 99.2306 82.2163 100.829 83.9741C102.295 85.5873 102.323 87.2267 102.323 87.4219H86.3231C86.3231 89.3358 86.7418 92.2643 88.9895 94.7369C91.3688 97.3541 94.4456 98 96.6669 98V82ZM102.323 87.4219V25.3594H86.3231V87.4219H102.323ZM102.323 25.3594C102.323 25.5545 102.295 27.194 100.829 28.8072C99.2306 30.565 97.3257 30.7812 96.6669 30.7812V14.7812C94.4456 14.7812 91.3688 15.4272 88.9895 18.0444C86.7418 20.517 86.3231 23.4455 86.3231 25.3594H102.323ZM96.6669 30.7812H100.979V14.7812H96.6669V30.7812ZM100.979 30.7812C100.321 30.7812 98.4157 30.565 96.8177 28.8072C95.3511 27.194 95.3231 25.5545 95.3231 25.3594H111.323C111.323 23.4455 110.904 20.517 108.657 18.0444C106.277 15.4272 103.201 14.7812 100.979 14.7812V30.7812ZM95.3231 25.3594V87.4219H111.323V25.3594H95.3231ZM95.3231 87.4219C95.3231 87.2267 95.3511 85.5873 96.8177 83.9741C98.4157 82.2163 100.321 82 100.979 82V98C103.201 98 106.277 97.3541 108.657 94.7369C110.904 92.2643 111.323 89.3358 111.323 87.4219H95.3231ZM100.979 82H96.6669V98H100.979V82ZM149.724 80.1094L143.832 85.5214L143.865 85.557L143.898 85.5923L149.724 80.1094ZM174.052 80.1094L168.194 74.6605L168.192 74.6631L174.052 80.1094ZM179.958 85.3125L174.638 79.3377L174.628 79.3468L174.618 79.3559L179.958 85.3125ZM143.818 85.3125L138.477 91.2691L138.487 91.2782L138.498 91.2873L143.818 85.3125ZM145.021 64.3594V25.3594H129.021V64.3594H145.021ZM145.021 25.3594C145.021 25.5545 144.993 27.194 143.526 28.8072C141.928 30.565 140.023 30.7812 139.364 30.7812V14.7812C137.143 14.7812 134.066 15.4272 131.687 18.0444C129.439 20.517 129.021 23.4455 129.021 25.3594H145.021ZM139.364 30.7812H143.677V14.7812H139.364V30.7812ZM143.677 30.7812C143.018 30.7812 141.113 30.565 139.515 28.8072C138.049 27.194 138.021 25.5545 138.021 25.3594H154.021C154.021 23.4455 153.602 20.517 151.354 18.0444C148.975 15.4272 145.898 14.7812 143.677 14.7812V30.7812ZM138.021 25.3594V62.9531H154.021V25.3594H138.021ZM138.021 62.9531C138.021 67.6457 138.346 71.8785 139.127 75.4926C139.88 78.9856 141.22 82.6777 143.832 85.5214L155.615 74.6974C155.759 74.8535 155.247 74.3425 154.766 72.1168C154.312 70.0121 154.021 67.0105 154.021 62.9531H138.021ZM143.898 85.5923C148.563 90.5486 155.26 92.0938 161.911 92.0938V76.0938C157.313 76.0938 155.885 74.9827 155.549 74.6265L143.898 85.5923ZM161.911 92.0938C168.551 92.0938 175.267 90.5532 179.912 85.5556L168.192 74.6631C167.899 74.978 166.521 76.0938 161.911 76.0938V92.0938ZM179.909 85.5582C182.553 82.7167 183.914 79.0184 184.68 75.513C185.472 71.8902 185.802 67.65 185.802 62.9531H169.802C169.802 67.0063 169.507 70.0004 169.049 72.0964C168.565 74.3097 168.051 74.8146 168.194 74.6605L179.909 85.5582ZM185.802 62.9531V25.3594H169.802V62.9531H185.802ZM185.802 25.3594C185.802 25.5545 185.774 27.194 184.307 28.8072C182.709 30.565 180.804 30.7812 180.146 30.7812V14.7812C177.924 14.7812 174.848 15.4272 172.468 18.0444C170.221 20.517 169.802 23.4455 169.802 25.3594H185.802ZM180.146 30.7812H184.458V14.7812H180.146V30.7812ZM184.458 30.7812C183.799 30.7812 181.894 30.565 180.296 28.8072C178.83 27.194 178.802 25.5545 178.802 25.3594H194.802C194.802 23.4455 194.383 20.517 192.135 18.0444C189.756 15.4272 186.679 14.7812 184.458 14.7812V30.7812ZM178.802 25.3594V64.3594H194.802V25.3594H178.802ZM178.802 64.3594C178.802 73.3654 176.682 77.5182 174.638 79.3377L185.278 91.2873C192.36 84.9818 194.802 75.1659 194.802 64.3594H178.802ZM174.618 79.3559C171.875 81.815 167.918 83.4062 161.911 83.4062V99.4062C170.904 99.4062 178.979 96.935 185.298 91.2691L174.618 79.3559ZM161.911 83.4062C155.906 83.4062 151.92 81.8157 149.137 79.3377L138.498 91.2873C144.84 96.9343 152.916 99.4062 161.911 99.4062V83.4062ZM149.158 79.3559C147.132 77.5395 145.021 73.3791 145.021 64.3594H129.021C129.021 75.1522 131.441 84.9605 138.477 91.2691L149.158 79.3559ZM246.093 30.8438V22.8438H238.093V30.8438H246.093ZM237.093 30.8438H245.093V22.8438H237.093V30.8438ZM216.796 22.8438C216.824 22.8438 218.33 22.8169 219.929 24.1247C221.834 25.684 222.218 27.7332 222.218 28.7344H206.218C206.218 31.1418 207.032 34.2457 209.797 36.5081C212.255 38.519 215.05 38.8438 216.796 38.8438V22.8438ZM222.218 28.7344V24.8906H206.218V28.7344H222.218ZM222.218 24.8906C222.218 25.8918 221.834 27.941 219.929 29.5003C218.33 30.8081 216.824 30.7812 216.796 30.7812V14.7812C215.05 14.7812 212.255 15.106 209.797 17.1169C207.032 19.3793 206.218 22.4832 206.218 24.8906H222.218ZM216.796 30.7812H266.39V14.7812H216.796V30.7812ZM266.39 30.7812C266.363 30.7812 264.856 30.8081 263.258 29.5003C261.352 27.941 260.968 25.8918 260.968 24.8906H276.968C276.968 22.4832 276.155 19.3793 273.389 17.1169C270.932 15.106 268.136 14.7812 266.39 14.7812V30.7812ZM260.968 24.8906V28.7344H276.968V24.8906H260.968ZM260.968 28.7344C260.968 27.7332 261.352 25.684 263.258 24.1247C264.856 22.8169 266.363 22.8438 266.39 22.8438V38.8438C268.136 38.8438 270.932 38.519 273.389 36.5081C276.155 34.2457 276.968 31.1418 276.968 28.7344H260.968ZM266.39 22.8438H246.093V38.8438H266.39V22.8438ZM238.093 30.8438V87.4219H254.093V30.8438H238.093ZM238.093 87.4219C238.093 87.2267 238.121 85.5873 239.588 83.9741C241.186 82.2163 243.091 82 243.749 82V98C245.971 98 249.047 97.3541 251.427 94.7369C253.674 92.2643 254.093 89.3358 254.093 87.4219H238.093ZM243.749 82H239.437V98H243.749V82ZM239.437 82C240.096 82 242.001 82.2163 243.599 83.9741C245.065 85.5873 245.093 87.2267 245.093 87.4219H229.093C229.093 89.3358 229.512 92.2643 231.76 94.7369C234.139 97.3541 237.216 98 239.437 98V82ZM245.093 87.4219V30.8438H229.093V87.4219H245.093ZM237.093 22.8438H216.796V38.8438H237.093V22.8438Z" fill="#318CE7"/>
</svg>
